{"glyphs":{"0":{"ha":634,"x_min":34,"x_max":600,"o":"m 317 0 q 116 128 199 0 q 34 435 34 256 q 116 742 34 614 q 317 870 199 870 q 517 742 434 870 q 600 435 600 614 q 517 128 600 256 q 317 0 434 0 m 316 52 q 476 164 410 52 q 542 433 542 275 q 476 701 542 589 q 316 812 410 812 q 155 701 221 812 q 90 433 90 589 q 155 164 90 275 q 316 52 221 52 z "},"1":{"ha":454,"x_min":34,"x_max":420,"o":"m 420 800 l 420 47 q 412 12 420 24 q 392 0 404 0 q 373 12 381 0 q 366 47 366 24 l 366 772 q 345 809 366 809 q 299 787 328 809 l 93 638 q 59 625 73 625 q 51 626 58 625 q 37 635 43 626 q 34 646 34 640 q 39 661 34 651 q 64 683 43 671 l 252 819 q 360 869 321 869 q 396 855 373 869 q 420 800 420 840 z "},"2":{"ha":597,"x_min":34,"x_max":563,"o":"m 35 50 q 34 79 34 65 q 88 229 34 175 q 148 283 107 254 q 239 349 188 312 q 408 496 338 422 q 458 636 458 568 l 458 638 q 407 764 458 708 q 263 822 355 820 q 117 765 182 822 q 73 742 92 742 q 54 751 62 742 q 49 764 49 757 q 87 813 49 785 q 262 879 176 879 q 355 859 309 879 q 509 632 509 785 q 395 408 509 494 q 302 330 366 378 q 155 217 237 282 q 90 59 90 161 l 90 43 q 66 1 90 1 l 60 1 q 35 50 35 1 m 515 55 q 551 47 539 55 q 563 28 563 39 q 551 8 563 16 q 515 1 539 1 l 222 1 q 187 8 199 1 q 175 28 175 16 q 187 47 175 39 q 222 55 199 55 l 515 55 z "},"3":{"ha":578,"x_min":34,"x_max":544,"o":"m 116 769 q 97 765 105 765 q 73 778 81 765 q 69 789 69 784 q 93 818 69 804 q 250 867 162 858 q 285 869 268 869 q 431 818 376 869 q 491 681 491 763 q 488 625 491 674 q 412 507 486 576 q 343 459 380 476 q 202 420 254 422 q 170 418 186 418 q 152 419 165 418 q 129 429 140 419 q 121 440 123 434 q 120 445 120 443 q 149 471 120 464 q 367 535 302 480 q 437 656 427 592 q 439 681 439 669 q 406 766 439 730 q 276 818 362 818 l 263 818 q 116 769 182 809 m 387 387 q 367 411 367 396 q 370 422 367 416 q 392 436 375 436 q 419 430 403 436 q 544 268 534 380 q 452 54 541 117 q 258 0 374 0 q 219 1 239 0 q 56 48 109 12 q 34 85 34 68 q 38 98 34 92 q 54 109 45 109 q 75 99 63 109 q 241 55 109 75 q 415 99 343 55 q 487 256 487 144 q 488 267 488 262 q 387 387 488 338 z "},"4":{"ha":657,"x_min":34,"x_max":623,"o":"m 445 158 q 453 194 445 182 q 471 207 461 207 q 491 194 484 207 q 499 158 499 182 l 499 49 q 491 12 499 24 q 471 0 484 0 q 453 12 461 0 q 445 49 445 24 l 445 158 m 118 250 q 34 317 34 264 q 56 381 34 344 l 357 788 q 465 873 423 873 q 496 859 482 873 q 503 821 503 846 l 503 389 q 495 353 503 366 q 477 340 488 340 q 457 353 465 340 q 449 389 449 366 l 449 768 q 450 781 450 775 q 442 798 450 798 q 413 770 433 798 l 114 368 q 92 326 92 341 q 130 305 92 305 l 575 305 q 611 297 600 305 q 623 276 623 290 q 611 258 623 266 q 575 250 600 250 l 118 250 z "},"5":{"ha":534,"x_min":34,"x_max":500,"o":"m 137 818 l 137 621 q 129 586 137 597 q 109 574 121 574 q 90 586 98 574 q 82 621 82 597 l 82 825 q 92 863 82 855 q 130 873 100 873 l 424 873 q 460 865 448 873 q 472 846 472 857 q 460 826 472 834 q 424 818 448 818 l 137 818 m 207 450 q 153 481 157 452 l 153 485 q 190 511 153 510 q 205 511 198 511 q 351 477 278 511 q 489 326 460 423 q 500 252 500 289 q 462 120 500 194 q 328 12 424 45 q 258 0 292 0 q 244 1 251 0 l 227 1 q 119 11 161 1 q 59 32 78 20 q 35 59 41 44 q 34 68 34 64 q 35 76 34 73 q 53 93 39 93 q 74 87 62 93 q 233 53 156 53 q 304 60 269 53 q 421 152 384 87 q 448 246 448 198 q 443 288 448 267 q 340 419 428 370 q 219 450 273 450 q 207 450 213 450 z "},"6":{"ha":624,"x_min":34,"x_max":590,"o":"m 522 351 q 506 378 515 365 q 361 460 460 448 q 338 460 349 460 q 227 438 270 460 q 193 431 207 431 q 165 446 173 431 q 161 460 161 454 q 186 486 161 475 q 330 517 251 517 q 349 517 339 517 q 534 431 470 507 q 590 276 590 363 q 585 207 590 264 q 499 70 581 150 q 435 28 465 42 q 307 0 366 0 q 129 83 218 0 q 34 380 39 166 q 143 725 34 581 q 409 869 253 869 q 473 864 445 869 q 518 847 500 859 q 541 824 536 836 q 541 817 541 821 q 541 810 541 814 q 522 796 536 796 q 500 802 513 796 q 462 815 483 810 q 410 820 441 820 q 181 690 276 820 q 87 377 87 561 q 125 182 87 267 q 199 90 152 126 q 310 49 246 54 q 321 48 315 48 q 458 104 381 48 q 537 247 527 174 q 539 275 539 261 q 522 351 539 315 z "},"7":{"ha":620,"x_min":34,"x_max":586,"o":"m 486 707 q 507 738 495 730 q 522 743 515 743 q 528 742 526 743 q 543 724 541 738 q 544 716 544 720 q 538 687 544 705 l 283 35 q 261 5 273 13 q 245 -1 253 -1 q 239 1 242 -1 q 225 19 228 5 q 224 26 224 22 q 231 56 224 39 l 486 707 m 82 814 q 46 823 58 814 q 34 842 34 831 q 46 861 34 853 q 82 869 58 869 l 538 869 q 574 861 562 869 q 586 842 586 853 q 574 823 586 831 q 538 814 562 814 l 82 814 z "},"8":{"ha":616,"x_min":34,"x_max":582,"o":"m 515 585 q 458 524 490 548 q 432 511 444 511 q 413 524 420 511 q 408 538 408 531 q 435 581 408 558 q 466 615 452 593 q 481 671 481 637 q 426 777 481 733 q 296 821 372 821 q 164 777 219 821 q 110 671 110 733 q 164 565 110 608 q 380 479 219 522 q 502 415 448 463 q 582 243 582 343 q 502 71 582 142 q 308 0 421 0 q 114 71 195 0 q 34 243 34 142 q 59 347 34 300 q 110 414 79 386 q 137 431 125 431 q 155 422 146 431 q 161 406 161 414 q 140 370 161 390 q 109 330 125 357 q 87 245 87 292 q 152 108 87 164 q 308 52 216 52 q 463 108 398 52 q 528 245 528 164 q 466 378 528 325 q 373 426 427 411 q 301 446 342 435 q 223 473 260 456 q 127 527 155 503 q 56 671 56 587 q 127 815 56 755 q 297 876 197 876 q 466 815 395 876 q 536 671 536 755 q 515 585 536 624 z "},"9":{"ha":624,"x_min":34,"x_max":590,"o":"m 413 5 l 413 0 l 408 0 l 413 5 m 214 53 q 442 182 348 53 q 536 496 536 312 q 498 690 536 605 q 424 782 471 747 q 313 823 377 817 q 302 823 308 823 q 165 768 243 823 q 87 625 96 698 q 85 596 85 610 q 118 494 85 540 q 263 413 163 425 q 286 412 275 412 q 397 433 354 412 q 431 440 417 440 q 459 426 451 440 q 463 413 463 419 q 437 385 463 397 q 294 354 373 354 q 275 355 284 354 q 90 441 154 364 q 34 597 34 509 q 39 665 34 608 q 125 802 43 722 q 189 846 159 831 q 315 873 257 873 q 495 789 406 873 q 590 493 585 706 q 480 146 590 291 q 215 2 370 2 q 151 7 179 2 q 105 24 123 13 q 83 49 87 35 q 83 56 83 52 q 83 64 83 60 q 102 76 88 76 q 123 71 111 76 q 162 58 140 62 q 214 53 183 53 z "},"\u001d":{"ha":727,"x_min":0,"x_max":0,"o":""},"\u0000":{"ha":0,"x_min":0,"x_max":0,"o":""}," ":{"ha":543,"x_min":0,"x_max":0,"o":""},"!":{"ha":220,"x_min":34,"x_max":186,"o":"m 84 823 q 92 859 84 846 q 111 871 100 871 q 131 859 123 871 q 138 823 138 846 l 138 312 q 131 276 138 288 q 111 264 123 264 q 92 276 100 264 q 84 312 84 288 l 84 823 m 111 0 q 56 22 79 0 q 34 77 34 45 q 56 130 34 107 q 111 153 79 153 q 164 130 141 153 q 186 77 186 107 q 164 22 186 45 q 111 0 141 0 m 111 50 q 131 58 123 50 q 140 79 140 66 q 131 100 140 92 q 111 109 123 109 q 90 100 99 109 q 81 79 81 92 q 90 58 81 66 q 111 50 99 50 z "},"\"":{"ha":413,"x_min":34,"x_max":379,"o":"m 115 652 q 59 708 85 652 q 34 796 34 764 q 56 849 34 827 q 109 872 79 872 q 164 849 141 872 q 186 796 186 827 q 167 708 186 764 q 115 652 147 652 m 116 714 q 138 798 128 714 q 130 819 138 810 q 109 828 121 828 q 89 819 98 828 q 80 798 80 810 q 92 749 80 783 q 116 714 104 714 m 308 652 q 252 708 277 652 q 227 796 227 764 q 249 849 227 827 q 302 872 271 872 q 356 849 334 872 q 379 796 379 827 q 359 708 379 764 q 308 652 340 652 m 309 714 q 331 798 321 714 q 322 819 331 810 q 302 828 314 828 q 281 819 290 828 q 273 798 273 810 q 285 749 273 783 q 309 714 297 714 z "},"#":{"ha":1034,"x_min":34,"x_max":1000,"o":"m 752 610 l 671 296 l 857 296 q 893 288 881 296 q 905 268 905 280 q 893 250 905 258 q 857 241 881 241 l 657 241 l 605 39 q 588 6 598 16 q 572 -1 580 -1 q 566 0 568 -1 q 551 16 555 3 q 549 30 549 22 q 552 53 549 40 l 601 241 l 308 241 l 256 39 q 239 6 249 16 q 222 -1 231 -1 q 216 0 219 -1 q 201 16 205 3 q 199 30 199 22 q 203 53 199 40 l 252 241 l 82 241 q 46 250 58 241 q 34 268 34 258 q 46 288 34 280 q 82 296 58 296 l 265 296 l 347 610 l 178 610 q 141 618 153 610 q 130 637 130 627 q 141 657 130 649 q 178 665 153 665 l 361 665 l 404 831 q 420 864 410 854 q 436 871 429 871 q 441 870 439 871 q 458 854 453 867 q 460 841 460 848 q 456 817 460 831 l 416 665 l 710 665 l 753 831 q 770 864 759 854 q 785 871 778 871 q 791 870 788 871 q 807 854 802 867 q 809 841 809 848 q 805 817 809 831 l 766 665 l 953 665 q 988 657 977 665 q 1000 637 1000 649 q 988 618 1000 627 q 953 610 977 610 l 752 610 m 614 296 l 696 610 l 403 610 l 321 296 l 614 296 z "},"$":{"ha":617,"x_min":34,"x_max":583,"o":"m 434 383 q 414 407 414 392 q 416 418 414 412 q 439 433 422 433 q 469 426 451 433 q 539 347 504 401 q 583 214 575 293 l 583 208 q 492 81 583 140 q 288 28 410 28 q 244 29 267 28 q 136 42 179 29 q 58 81 92 56 q 34 117 34 101 q 39 130 34 124 q 57 140 46 140 q 78 132 66 140 q 156 94 115 107 q 267 81 197 81 q 452 125 376 81 q 528 205 528 170 q 486 325 528 269 l 434 383 m 227 513 q 254 490 254 507 q 252 481 254 486 q 221 464 248 464 q 199 466 212 464 q 110 523 161 477 q 59 646 59 570 q 147 788 59 724 q 358 852 235 852 q 460 839 413 852 q 530 811 499 827 q 563 788 546 803 q 582 758 581 772 q 576 743 582 750 q 559 734 568 734 q 536 745 549 734 q 494 772 513 762 q 370 799 437 793 q 196 756 268 799 q 117 661 124 714 q 153 560 117 599 q 227 513 190 521 m 301 694 q 309 730 301 718 q 328 742 317 742 q 348 730 340 742 q 355 694 355 718 l 355 180 q 348 144 355 156 q 328 132 340 132 q 309 144 317 132 q 301 180 301 156 l 301 694 z "},"%":{"ha":444,"x_min":34,"x_max":410,"o":"m 291 831 q 308 864 298 854 q 324 871 316 871 q 330 870 327 871 q 345 854 341 867 q 347 840 347 848 q 344 817 347 830 l 143 39 q 126 6 137 16 q 110 -1 118 -1 q 104 0 106 -1 q 89 16 94 3 q 87 29 87 22 q 91 53 87 39 l 291 831 m 334 123 q 280 146 302 123 q 258 200 258 168 q 280 253 258 231 q 334 276 302 276 q 388 253 365 276 q 410 200 410 231 q 388 146 410 168 q 334 123 365 123 m 334 174 q 355 182 347 174 q 363 203 363 190 q 355 223 363 215 q 334 232 347 232 q 314 223 323 232 q 305 203 305 215 q 314 182 305 190 q 334 174 323 174 m 111 669 q 131 677 123 669 q 140 698 140 685 q 131 719 140 710 q 111 727 123 727 q 90 719 99 727 q 81 698 81 710 q 90 677 81 685 q 111 669 99 669 m 111 618 q 56 641 79 618 q 34 695 34 663 q 56 748 34 726 q 111 771 79 771 q 164 748 141 771 q 186 695 186 726 q 164 641 186 663 q 111 618 141 618 z "},"&":{"ha":1020,"x_min":34,"x_max":986,"o":"m 635 100 l 187 544 q 134 678 134 601 q 196 823 134 763 q 345 883 258 883 q 495 823 433 883 q 557 678 557 763 q 538 593 557 631 q 488 532 515 555 q 465 519 475 519 q 448 531 455 519 q 444 546 444 538 q 468 589 444 565 q 495 623 482 601 q 507 678 507 645 q 459 784 507 741 q 345 828 412 828 q 235 791 276 828 q 189 691 194 755 l 189 686 q 219 591 189 633 l 686 125 q 812 65 768 65 q 871 74 845 65 q 913 101 897 82 q 959 124 940 124 q 977 117 969 124 q 986 99 986 109 q 970 72 986 86 q 916 31 951 53 q 813 9 880 9 q 635 100 727 9 m 114 397 q 136 416 126 410 q 170 441 153 429 q 198 450 186 450 l 203 450 q 216 444 210 448 q 222 429 222 437 q 210 403 222 417 q 158 361 182 382 q 92 248 92 305 q 113 176 92 227 q 204 86 133 125 q 328 51 267 51 q 355 53 341 51 q 452 89 393 58 q 505 121 477 102 q 525 125 516 125 q 546 113 538 125 q 547 106 547 110 q 546 100 547 103 q 527 72 543 85 q 492 47 510 58 q 442 23 477 37 q 373 4 408 9 q 324 0 349 0 q 171 41 245 0 q 45 184 75 93 q 34 249 34 217 q 67 351 34 303 q 114 397 83 374 m 749 424 q 762 528 762 485 l 762 534 q 753 613 762 574 q 749 631 749 623 q 763 651 749 644 q 772 653 768 653 q 807 622 790 653 q 817 542 817 586 q 803 422 817 499 q 725 275 789 346 q 684 247 701 247 q 670 252 676 247 q 661 269 661 260 q 671 289 661 279 q 749 424 738 370 z "},"'":{"ha":220,"x_min":34,"x_max":186,"o":"m 115 652 q 59 708 85 652 q 34 796 34 764 q 56 849 34 827 q 109 872 79 872 q 164 849 141 872 q 186 796 186 827 q 167 708 186 764 q 115 652 147 652 m 116 714 q 138 798 128 714 q 130 819 138 810 q 109 828 121 828 q 89 819 98 828 q 80 798 80 810 q 92 749 80 783 q 116 714 104 714 z "},"(":{"ha":345,"x_min":34,"x_max":311,"o":"m 35 492 q 152 809 40 705 q 253 865 197 851 q 272 867 262 867 l 275 867 q 303 860 294 867 q 311 848 308 855 q 311 842 311 845 q 282 819 311 825 q 246 808 268 817 q 200 781 224 800 q 126 690 153 745 q 87 494 87 604 l 87 373 q 125 178 87 263 q 199 86 152 122 q 245 59 223 68 q 281 48 267 51 q 311 25 311 42 q 310 19 311 22 q 302 7 307 12 q 275 0 293 0 l 271 0 q 252 3 262 1 q 151 58 197 16 q 34 376 39 162 l 35 492 z "},")":{"ha":345,"x_min":34,"x_max":311,"o":"m 311 492 l 311 376 q 194 58 306 162 q 93 3 149 16 q 74 0 83 1 l 71 0 q 43 7 52 0 q 35 19 38 12 q 35 25 35 22 q 64 48 35 42 q 100 59 78 51 q 146 86 122 68 q 220 178 193 122 q 258 373 258 263 l 258 494 q 219 690 258 604 q 145 781 193 745 q 99 808 121 800 q 63 819 77 817 q 34 842 34 825 q 35 848 34 845 q 42 860 37 855 q 70 867 52 867 l 73 867 q 92 865 83 867 q 193 809 148 851 q 311 492 305 705 z "},"*":{"ha":323,"x_min":34,"x_max":290,"o":"m 192 773 l 239 795 q 262 801 253 801 q 286 784 279 801 q 290 770 290 777 q 269 741 290 755 l 197 706 l 256 610 q 267 576 267 591 q 267 568 267 576 q 257 555 266 561 q 246 553 252 553 q 230 557 240 553 q 209 583 220 562 l 165 652 l 123 583 q 98 555 111 562 q 85 552 92 552 q 75 555 80 552 q 65 574 66 560 l 65 576 q 76 610 65 590 l 134 706 l 62 738 q 34 768 34 749 q 35 777 34 772 q 62 800 43 800 q 83 794 71 800 l 138 772 l 138 851 q 146 887 138 876 q 164 899 154 899 q 184 887 176 899 q 192 851 192 876 l 192 773 z "},"+":{"ha":503,"x_min":34,"x_max":469,"o":"m 279 481 l 422 481 q 457 474 446 481 q 469 455 469 466 q 457 435 469 443 q 422 427 446 427 l 279 427 l 279 284 q 271 249 279 260 q 251 237 263 237 q 233 249 241 237 q 224 284 224 260 l 224 427 l 82 427 q 46 435 58 427 q 34 455 34 443 q 46 474 34 466 q 82 481 58 481 l 224 481 l 224 624 q 233 660 224 648 q 251 672 241 672 q 271 660 263 672 q 279 624 279 648 l 279 481 z "},",":{"ha":220,"x_min":34,"x_max":186,"o":"m 77 -67 q 40 -11 45 -67 q 34 77 34 45 q 56 131 34 108 q 111 153 79 153 q 164 131 141 153 q 186 77 186 108 q 147 -11 186 45 q 77 -67 108 -67 m 90 -5 q 121 30 102 -5 q 140 79 140 64 q 131 100 140 92 q 111 109 123 109 q 90 100 99 109 q 81 79 81 92 q 81 50 81 63 q 90 -5 81 -5 z "},"-":{"ha":503,"x_min":34,"x_max":469,"o":"m 422 481 q 457 474 446 481 q 469 455 469 466 q 457 435 469 443 q 422 427 446 427 l 82 427 q 46 435 58 427 q 34 455 34 443 q 46 474 34 466 q 82 481 58 481 l 422 481 z "},".":{"ha":220,"x_min":34,"x_max":186,"o":"m 111 0 q 56 22 79 0 q 34 77 34 45 q 56 130 34 107 q 111 153 79 153 q 164 130 141 153 q 186 77 186 107 q 164 22 186 45 q 111 0 141 0 m 111 50 q 131 58 123 50 q 140 79 140 66 q 131 100 140 92 q 111 109 123 109 q 90 100 99 109 q 81 79 81 92 q 90 58 81 66 q 111 50 99 50 z "},"/":{"ha":328,"x_min":34,"x_max":294,"o":"m 238 831 q 254 863 244 854 q 271 871 263 871 q 276 870 273 871 q 291 858 288 867 q 294 841 294 848 q 290 817 294 831 l 90 39 q 74 7 83 16 q 57 -1 65 -1 q 51 0 54 -1 q 37 13 40 3 q 34 30 34 22 q 37 53 34 40 l 238 831 z "},":":{"ha":220,"x_min":34,"x_max":186,"o":"m 111 68 q 56 90 79 68 q 34 144 34 113 q 56 198 34 175 q 111 220 79 220 q 164 198 141 220 q 186 144 186 175 q 164 90 186 113 q 111 68 141 68 m 111 118 q 131 126 123 118 q 140 147 140 134 q 131 168 140 159 q 111 176 123 176 q 90 168 99 176 q 81 147 81 159 q 90 126 81 134 q 111 118 99 118 m 111 661 q 131 669 123 661 q 140 690 140 677 q 131 711 140 703 q 111 720 123 720 q 90 711 99 720 q 81 690 81 703 q 90 669 81 677 q 111 661 99 661 m 111 611 q 56 633 79 611 q 34 688 34 656 q 56 741 34 718 q 111 764 79 764 q 164 741 141 764 q 186 688 186 718 q 164 633 186 656 q 111 611 141 611 z "},";":{"ha":220,"x_min":34,"x_max":186,"o":"m 77 0 q 40 56 45 0 q 34 144 34 113 q 56 198 34 175 q 111 220 79 220 q 164 198 141 220 q 186 144 186 175 q 147 56 186 113 q 77 0 108 0 m 90 62 q 121 97 102 62 q 140 146 140 132 q 131 168 140 159 q 111 176 123 176 q 90 168 99 176 q 81 146 81 159 q 81 117 81 130 q 90 62 81 62 m 111 661 q 131 669 123 661 q 140 690 140 677 q 131 711 140 703 q 111 720 123 720 q 90 711 99 720 q 81 690 81 703 q 90 669 81 677 q 111 661 99 661 m 111 611 q 56 633 79 611 q 34 688 34 656 q 56 741 34 718 q 111 764 79 764 q 164 741 141 764 q 186 688 186 718 q 164 633 186 656 q 111 611 141 611 z "},"<":{"ha":670,"x_min":34,"x_max":636,"o":"m 103 427 q 103 422 103 427 q 601 184 102 418 q 630 165 624 174 q 636 147 636 156 q 635 137 636 142 q 620 124 629 126 q 606 122 611 122 q 581 127 595 122 l 103 354 q 34 427 34 390 q 103 493 35 463 l 579 722 q 605 727 593 727 q 614 726 610 727 q 631 707 628 723 q 632 696 632 701 q 629 684 632 689 q 598 663 621 673 q 103 427 103 435 z "},"=":{"ha":503,"x_min":34,"x_max":469,"o":"m 422 581 q 457 573 446 581 q 469 554 469 565 q 457 534 469 542 q 422 526 446 526 l 82 526 q 46 534 58 526 q 34 554 34 542 q 46 573 34 565 q 82 581 58 581 l 422 581 m 422 378 q 457 371 446 378 q 469 352 469 363 q 457 332 469 340 q 422 324 446 324 l 82 324 q 46 332 58 324 q 34 352 34 340 q 46 371 34 363 q 82 378 58 378 l 422 378 z "},">":{"ha":670,"x_min":34,"x_max":636,"o":"m 73 663 q 42 684 50 673 q 39 698 39 689 q 41 712 39 702 q 56 726 43 723 q 66 727 61 727 q 92 722 77 727 l 568 493 q 636 427 636 463 q 568 354 636 390 l 90 127 q 64 122 76 122 q 51 124 60 122 q 36 137 41 126 q 34 147 34 142 q 40 165 34 156 q 70 184 47 174 q 568 427 568 418 q 73 663 568 435 z "},"?":{"ha":475,"x_min":34,"x_max":441,"o":"m 206 886 q 372 828 303 886 q 441 687 441 770 q 372 547 441 605 q 277 442 311 488 q 233 335 233 384 q 235 317 233 326 q 235 304 235 311 q 210 268 235 268 l 194 268 q 177 307 178 269 q 176 328 176 317 q 214 461 176 397 q 285 540 222 473 q 335 590 304 561 q 376 659 366 619 q 382 694 382 675 q 333 792 382 753 q 208 831 285 831 q 149 822 174 831 q 106 795 123 813 q 60 772 79 772 q 43 779 50 772 q 34 797 34 787 q 50 824 34 810 q 104 865 68 843 q 206 886 140 886 m 216 0 q 161 22 184 0 q 138 77 138 45 q 161 130 138 107 q 216 153 184 153 q 269 130 246 153 q 292 77 292 107 q 269 22 292 45 q 216 0 246 0 m 216 50 q 236 58 228 50 q 245 79 245 66 q 236 100 245 92 q 216 109 228 109 q 195 100 203 109 q 186 79 186 92 q 195 58 186 66 q 216 50 203 50 z "},"@":{"ha":905,"x_min":34,"x_max":871,"o":"m 452 0 q 427 1 439 0 l 427 1 q 157 128 269 9 q 34 435 34 256 q 156 742 34 614 q 452 870 279 870 q 748 742 625 870 q 871 435 871 614 q 848 289 871 357 q 764 239 832 241 l 309 239 q 225 249 242 239 q 208 286 208 258 q 208 422 208 313 q 272 669 208 593 q 460 745 337 745 q 635 656 558 745 q 687 471 687 587 q 684 419 687 446 l 684 395 q 676 359 684 371 q 658 347 669 347 q 638 359 646 347 q 630 395 630 371 q 635 473 635 444 q 600 612 635 556 q 460 692 538 692 q 310 625 355 692 q 264 418 264 557 q 267 294 264 319 l 760 294 q 815 417 815 295 l 814 437 q 709 710 814 596 q 452 823 603 823 q 197 710 302 823 q 91 437 91 596 q 197 165 91 278 q 458 54 293 61 q 569 67 528 54 q 647 104 610 80 q 669 113 659 113 q 686 103 679 113 q 691 90 691 97 q 667 54 691 74 q 589 15 633 28 q 452 0 546 2 z "},"A":{"ha":764,"x_min":34,"x_max":730,"o":"m 302 266 q 268 273 273 266 q 262 292 262 281 q 268 312 262 304 q 302 320 273 320 l 505 320 q 550 359 550 320 q 543 396 550 374 l 414 758 q 382 807 399 807 q 348 756 366 807 l 92 39 q 71 5 83 13 q 56 0 64 0 q 49 1 52 0 q 35 18 38 5 q 34 25 34 22 q 41 57 34 38 l 308 804 q 380 868 335 868 q 456 804 431 868 l 590 437 q 608 353 608 388 q 497 266 608 266 l 302 266 m 723 57 q 730 26 730 39 q 728 14 730 22 q 715 1 726 5 q 708 0 711 0 q 690 6 701 0 q 673 39 680 13 l 622 180 q 615 212 615 199 q 617 224 615 216 q 630 237 619 233 q 637 238 633 238 q 655 231 645 238 q 673 199 665 224 l 723 57 z "},"B":{"ha":528,"x_min":34,"x_max":494,"o":"m 227 488 q 374 532 325 497 q 441 652 441 580 q 374 769 441 723 q 140 815 307 815 q 88 812 113 815 l 88 47 q 80 12 88 24 q 62 0 73 0 q 42 12 50 0 q 34 47 34 24 l 34 770 q 43 853 34 836 q 80 871 52 871 q 144 871 107 871 q 418 806 342 871 q 494 652 494 742 q 418 496 494 559 q 235 433 361 447 l 211 433 q 175 441 186 433 q 163 460 163 450 q 175 480 163 472 q 211 488 186 488 l 227 488 m 373 102 q 439 220 439 150 l 439 228 q 382 323 439 282 q 297 353 357 342 q 271 378 271 357 l 271 382 q 306 404 273 404 q 321 403 313 404 q 426 360 387 393 q 492 229 492 301 l 492 220 q 416 66 492 130 q 250 7 363 21 q 221 8 236 7 q 196 16 207 9 q 184 35 184 24 q 196 54 184 46 q 252 62 208 62 q 373 102 333 72 z "},"C":{"ha":661,"x_min":34,"x_max":627,"o":"m 606 808 q 627 772 627 787 q 622 757 627 764 q 605 748 614 748 q 583 759 595 748 q 502 804 534 795 q 416 817 460 817 q 187 705 281 817 q 92 436 92 593 q 187 168 92 279 q 416 56 281 56 q 518 73 470 56 q 581 115 543 85 q 604 128 593 128 q 621 119 612 128 q 627 105 627 113 q 606 68 627 90 q 414 0 542 8 q 145 127 256 0 q 34 435 34 255 q 145 742 34 614 q 414 869 256 869 q 509 856 462 869 q 606 808 556 843 z "},"D":{"ha":735,"x_min":34,"x_max":701,"o":"m 88 818 l 88 49 q 80 13 88 25 q 60 1 73 1 q 42 13 50 1 q 34 49 34 25 l 34 824 q 43 863 34 855 q 82 872 51 872 l 280 872 q 605 745 509 872 q 701 436 701 617 q 605 127 701 255 q 280 0 509 0 l 224 1 q 188 9 200 1 q 176 29 176 17 q 188 48 176 40 q 224 56 200 56 l 300 54 q 557 165 486 62 q 644 435 644 288 q 564 706 644 583 q 257 819 490 819 q 212 818 235 819 l 88 818 z "},"E":{"ha":509,"x_min":34,"x_max":475,"o":"m 43 861 q 81 871 51 871 l 427 871 q 463 863 451 871 q 475 843 475 855 q 463 824 475 832 q 427 817 451 817 l 88 817 l 88 481 l 427 481 q 463 473 451 481 q 475 453 475 465 q 463 435 475 443 q 427 427 451 427 l 77 427 q 45 435 61 427 q 34 477 34 443 l 34 823 q 43 861 34 854 m 88 54 l 427 54 q 463 46 451 54 q 475 26 475 39 q 463 8 475 16 q 427 0 451 0 l 81 0 q 43 9 51 0 q 34 47 34 17 l 34 304 q 42 340 34 328 q 60 352 50 352 q 80 340 73 352 q 88 304 88 328 l 88 54 z "},"F":{"ha":513,"x_min":34,"x_max":479,"o":"m 92 393 l 92 47 q 84 12 92 24 q 64 0 77 0 q 46 12 54 0 q 38 47 38 24 l 38 400 q 47 439 38 431 q 86 448 56 448 l 431 448 q 468 440 456 448 q 479 421 479 432 q 468 401 479 410 q 431 393 456 393 l 92 393 m 89 818 l 89 568 q 81 532 89 544 q 60 519 73 519 q 42 532 50 519 q 34 568 34 544 l 34 824 q 43 863 34 855 q 82 872 52 872 l 428 872 q 464 864 452 872 q 475 846 475 857 q 464 826 475 833 q 428 818 452 818 l 89 818 z "},"G":{"ha":760,"x_min":34,"x_max":726,"o":"m 695 822 q 726 786 726 803 q 723 775 726 781 q 704 762 716 762 q 685 768 696 762 q 545 812 629 796 q 473 818 509 818 q 380 807 427 818 q 210 711 288 783 q 111 528 149 657 q 94 436 98 489 q 92 412 92 424 q 105 327 92 370 q 202 153 132 235 q 474 55 304 55 q 573 62 521 55 q 669 108 630 76 l 669 371 l 507 371 q 471 379 483 371 q 458 399 458 387 q 471 417 458 410 q 507 425 483 425 l 675 425 q 713 415 706 425 q 723 378 723 408 l 723 111 q 702 65 723 83 q 608 12 654 25 q 464 1 530 1 q 161 113 258 1 q 45 327 73 213 q 34 410 34 369 q 37 456 34 423 q 50 530 40 489 q 168 749 93 680 q 366 860 263 836 q 458 869 408 869 q 630 848 534 869 q 695 822 661 839 z "},"H":{"ha":684,"x_min":34,"x_max":650,"o":"m 88 472 l 603 472 q 640 461 633 472 q 650 424 650 454 l 650 47 q 643 12 650 24 q 624 0 635 0 q 604 12 612 0 q 596 47 596 24 l 596 417 l 81 417 q 43 426 52 418 q 34 467 34 433 l 34 819 q 42 855 34 843 q 60 867 50 867 q 80 855 73 867 q 88 819 88 843 l 88 472 m 34 304 q 42 340 34 328 q 60 352 50 352 q 80 340 73 352 q 88 304 88 328 l 88 47 q 80 12 88 24 q 60 0 73 0 q 42 12 50 0 q 34 47 34 24 l 34 304 m 595 822 q 603 858 595 846 q 621 869 611 869 q 641 858 633 869 q 649 822 649 846 l 649 565 q 641 529 649 541 q 621 517 633 517 q 603 529 611 517 q 595 565 595 541 l 595 822 z "},"I":{"ha":122,"x_min":34,"x_max":88,"o":"m 34 823 q 42 859 34 847 q 60 871 50 871 q 80 859 73 871 q 88 823 88 847 l 88 47 q 80 12 88 24 q 60 0 73 0 q 42 12 50 0 q 34 47 34 24 l 34 823 z "},"J":{"ha":367,"x_min":34,"x_max":333,"o":"m 333 385 q 326 210 333 286 q 312 142 323 176 q 284 82 301 109 q 183 12 243 26 q 107 0 137 0 q 77 3 98 0 q 46 16 56 6 q 34 35 34 24 q 46 55 34 47 q 55 57 49 57 q 79 52 64 57 q 128 50 88 50 q 267 180 239 56 q 279 370 279 220 l 279 817 q 287 853 279 841 q 305 865 294 865 q 325 853 317 865 q 333 817 333 841 l 333 385 z "},"K":{"ha":601,"x_min":34,"x_max":567,"o":"m 34 823 q 42 859 34 847 q 60 871 50 871 q 80 859 72 871 q 88 823 88 847 l 88 48 q 80 12 88 24 q 60 0 72 0 q 42 12 50 0 q 34 48 34 24 l 34 823 m 203 448 q 172 428 185 431 q 165 427 168 427 q 149 433 155 427 q 143 449 143 439 q 145 461 143 452 q 164 487 146 469 l 484 854 q 515 873 502 871 q 522 874 519 874 q 538 868 532 874 q 544 852 544 862 q 542 841 544 850 q 523 815 541 832 l 203 448 m 254 309 q 239 342 240 328 l 239 347 q 245 363 239 357 q 260 368 252 368 q 273 365 264 368 q 297 343 282 361 l 551 65 q 567 31 566 45 l 567 28 q 559 9 567 16 q 547 5 554 5 q 533 9 543 5 q 509 31 523 12 l 254 309 z "},"L":{"ha":483,"x_min":34,"x_max":449,"o":"m 88 54 l 401 54 q 437 46 425 54 q 449 26 449 39 q 437 8 449 16 q 401 0 425 0 l 81 0 q 43 9 51 0 q 34 47 34 17 l 34 823 q 42 859 34 847 q 60 871 50 871 q 80 859 73 871 q 88 823 88 847 l 88 54 z "},"M":{"ha":967,"x_min":34,"x_max":933,"o":"m 464 41 q 442 71 452 47 l 135 763 q 101 812 111 812 q 93 791 96 812 q 89 746 89 770 l 89 47 q 81 12 89 24 q 61 0 73 0 q 42 12 50 0 q 34 47 34 24 l 34 746 q 35 760 34 753 q 94 871 35 868 l 100 871 q 170 815 146 871 l 195 760 l 484 110 l 772 760 l 798 815 q 867 871 821 871 l 873 871 q 933 760 932 868 l 933 47 q 925 12 933 24 q 907 0 917 0 q 886 12 895 0 q 878 47 878 24 l 878 746 q 873 802 878 770 q 867 812 872 812 q 832 763 857 812 l 525 71 q 503 41 515 47 q 484 35 493 35 q 464 41 474 35 z "},"N":{"ha":732,"x_min":34,"x_max":699,"o":"m 88 47 q 80 12 88 24 q 60 0 73 0 q 42 12 50 0 q 34 47 34 24 l 34 741 q 35 749 34 745 l 38 788 q 91 868 47 856 q 106 870 98 870 q 156 850 130 870 q 255 699 197 815 l 558 132 q 621 68 599 68 q 644 118 640 68 l 644 823 q 652 859 644 847 q 672 871 661 871 q 691 859 683 871 q 699 823 699 847 l 699 132 q 642 3 699 14 q 627 1 634 1 q 581 16 604 1 q 481 154 538 46 l 171 735 q 111 802 132 802 q 88 752 92 802 l 88 47 z "},"O":{"ha":905,"x_min":34,"x_max":871,"o":"m 452 0 q 156 128 279 0 q 34 435 34 256 q 156 742 34 614 q 452 870 279 870 q 748 742 625 870 q 871 435 871 614 q 748 128 871 256 q 452 0 625 0 m 452 51 q 709 164 603 51 q 814 437 814 278 q 709 710 814 596 q 452 823 603 823 q 197 710 302 823 q 91 437 91 596 q 197 164 91 278 q 452 51 302 51 z "},"P":{"ha":573,"x_min":34,"x_max":539,"o":"m 205 408 q 268 404 239 404 q 406 439 351 404 q 486 612 486 500 q 419 769 486 724 q 212 815 352 815 q 89 812 114 815 l 89 48 q 81 12 89 24 q 62 0 73 0 q 42 12 50 0 q 34 48 34 24 l 34 770 q 43 854 34 837 q 80 871 53 871 q 216 871 107 871 q 464 807 388 871 q 539 612 539 742 q 450 403 539 480 q 266 351 381 351 q 214 354 241 351 l 190 354 q 154 362 165 354 q 142 380 142 370 q 154 400 142 393 q 190 408 165 408 l 205 408 z "},"Q":{"ha":905,"x_min":34,"x_max":871,"o":"m 398 35 q 156 161 258 53 q 34 467 34 288 q 156 775 34 647 q 452 903 278 903 q 748 775 625 903 q 871 467 871 647 q 840 298 871 377 q 785 204 829 263 q 747 185 762 185 q 731 192 738 185 q 724 208 724 199 q 736 231 724 219 q 750 248 744 240 q 814 470 814 345 q 709 742 814 629 q 452 856 603 856 q 197 742 302 856 q 91 470 91 629 q 197 197 91 311 q 452 83 302 83 q 480 85 466 83 q 496 87 487 85 q 516 90 506 90 q 542 74 536 90 q 543 68 543 71 q 505 37 543 47 q 452 31 481 31 q 398 35 427 31 m 576 158 q 557 191 559 176 q 556 197 556 194 q 562 212 556 207 q 578 218 569 218 q 591 216 582 218 q 616 196 600 214 l 741 60 q 759 27 757 41 q 760 21 760 24 q 752 5 760 12 q 737 0 747 0 q 725 2 734 0 q 700 22 716 4 l 576 158 z "},"R":{"ha":633,"x_min":34,"x_max":600,"o":"m 406 439 q 486 612 486 500 q 419 769 486 724 q 212 815 352 815 q 88 812 114 815 l 88 48 q 80 12 88 24 q 62 0 73 0 q 42 12 50 0 q 34 48 34 24 l 34 770 q 43 854 34 837 q 80 871 52 871 q 216 871 107 871 q 464 807 388 871 q 539 612 539 742 q 450 403 539 480 q 250 351 381 351 q 189 354 221 351 q 154 362 165 354 q 142 380 142 370 q 154 400 142 393 q 189 408 165 408 q 259 404 227 404 q 406 439 350 404 m 362 279 q 350 313 350 299 q 350 321 350 313 q 358 334 351 328 q 371 337 365 337 q 386 333 377 337 q 408 308 395 328 l 587 60 q 600 26 600 39 q 599 18 600 25 q 590 3 599 10 q 580 1 585 1 q 564 5 574 1 q 542 31 554 10 l 362 279 z "},"S":{"ha":617,"x_min":34,"x_max":583,"o":"m 373 383 q 353 407 353 392 q 355 418 353 412 q 378 433 361 433 q 408 426 390 433 q 519 347 463 401 q 583 214 575 293 l 583 206 q 492 54 583 113 q 288 1 410 1 q 244 2 267 1 q 136 15 179 2 q 58 54 92 28 q 34 90 34 74 q 39 103 34 97 q 57 113 46 113 q 78 104 66 113 q 156 67 115 80 q 267 54 197 54 q 452 98 376 54 q 528 205 528 143 q 458 325 528 269 l 373 383 m 281 499 q 308 476 308 494 q 307 468 308 472 q 275 450 302 450 q 254 452 266 450 q 147 506 195 470 q 59 660 59 570 q 147 815 59 751 q 358 880 235 880 q 460 866 413 880 q 530 838 499 854 q 563 815 546 830 q 582 785 581 800 q 576 770 582 777 q 559 761 568 761 q 536 772 549 761 q 494 800 513 789 q 370 826 437 821 q 196 784 268 826 q 117 675 124 741 q 182 546 117 599 q 281 499 224 514 z "},"T":{"ha":677,"x_min":34,"x_max":643,"o":"m 313 817 l 81 817 q 46 825 58 817 q 34 844 34 833 q 46 863 34 855 q 81 871 58 871 l 319 871 q 358 862 350 871 q 368 823 368 854 l 368 48 q 359 12 368 24 q 341 0 351 0 q 321 12 329 0 q 313 48 313 24 l 313 817 m 465 817 q 429 825 441 817 q 416 843 416 833 q 429 863 416 855 q 465 871 441 871 l 595 871 q 631 863 618 871 q 643 843 643 855 q 631 825 643 833 q 595 817 618 817 l 465 817 z "},"U":{"ha":693,"x_min":34,"x_max":659,"o":"m 34 823 q 42 859 34 847 q 60 871 50 871 q 80 859 73 871 q 88 823 88 847 l 88 300 q 159 128 94 189 q 344 56 235 56 q 528 128 452 56 q 604 300 604 199 l 604 823 q 612 859 604 847 q 631 871 621 871 q 651 859 643 871 q 659 823 659 847 l 659 300 q 567 88 659 176 q 347 0 475 0 q 124 88 216 0 q 34 326 34 174 l 34 823 z "},"V":{"ha":781,"x_min":34,"x_max":747,"o":"m 417 113 l 690 836 q 710 866 699 858 q 726 872 719 872 q 732 871 729 872 q 746 852 743 866 q 747 843 747 848 q 741 817 747 832 l 494 165 l 455 63 q 448 45 452 52 l 437 27 q 389 0 417 0 q 342 27 361 0 q 326 58 332 40 q 325 62 326 59 l 286 164 l 39 815 q 34 842 34 831 q 36 856 34 846 q 48 870 38 865 q 54 871 51 871 q 72 864 62 871 q 91 834 81 857 l 365 106 q 388 67 380 68 q 417 113 397 67 z "},"W":{"ha":1221,"x_min":34,"x_max":1187,"o":"m 611 790 l 446 176 l 408 63 q 399 45 404 52 l 389 27 q 341 0 369 0 q 294 27 313 0 q 279 58 284 40 q 277 62 279 59 l 239 164 l 39 815 q 34 842 34 831 q 36 856 34 846 q 49 870 38 865 q 54 871 52 871 q 72 864 62 871 q 91 834 82 857 l 317 106 q 342 69 331 69 l 349 70 q 369 113 355 71 l 566 836 q 587 866 575 858 q 608 873 597 873 q 616 873 610 873 q 634 865 623 873 q 655 834 646 857 l 881 106 q 906 69 895 69 l 912 70 q 933 113 918 71 l 1130 836 q 1150 866 1139 858 q 1167 872 1159 872 q 1173 871 1170 872 q 1186 852 1183 866 q 1187 843 1187 848 q 1181 817 1187 832 l 1010 176 l 971 63 q 964 45 968 52 l 953 27 q 905 0 933 0 q 859 27 877 0 q 842 58 848 40 q 841 62 842 59 l 802 164 l 611 790 z "},"X":{"ha":701,"x_min":34,"x_max":667,"o":"m 51 821 q 38 855 38 841 q 45 876 38 870 q 58 879 51 879 q 73 875 64 879 q 96 851 83 871 l 636 59 q 650 24 650 39 q 640 3 650 9 q 630 0 635 0 q 614 4 625 0 q 591 28 604 8 l 51 821 m 608 850 q 637 873 624 869 q 649 876 644 876 q 659 873 654 876 q 667 852 667 865 q 666 843 667 851 q 651 817 665 836 l 450 519 q 420 495 434 499 q 411 494 416 494 q 397 498 404 494 q 390 515 390 503 q 391 525 390 517 q 406 552 391 534 l 608 850 m 252 357 q 281 380 268 375 q 292 382 288 382 q 302 379 298 382 q 311 359 311 371 q 310 350 311 358 q 294 323 309 342 l 94 26 q 64 1 78 5 q 55 0 60 0 q 41 4 47 0 q 34 22 34 10 q 35 32 34 24 q 50 59 35 40 l 252 357 z "},"Y":{"ha":690,"x_min":34,"x_max":656,"o":"m 448 451 q 422 425 435 430 q 410 422 415 422 q 399 425 404 422 q 389 445 389 431 l 389 446 q 401 479 389 460 l 597 844 q 624 871 610 866 q 636 874 631 874 q 646 871 642 874 q 656 850 656 865 l 656 849 q 644 817 656 836 l 448 451 m 47 817 q 34 850 34 837 q 34 859 34 851 q 44 873 35 866 q 54 876 49 876 q 69 872 60 876 q 93 847 79 867 l 375 355 l 375 48 q 367 12 375 24 q 347 0 359 0 q 328 12 336 0 q 320 48 320 24 l 320 343 l 47 817 z "},"Z":{"ha":698,"x_min":34,"x_max":664,"o":"m 161 55 l 616 55 q 652 47 640 55 q 664 28 664 39 q 652 8 664 16 q 616 0 640 0 l 156 0 q 45 58 68 0 q 42 80 42 70 q 48 106 42 92 q 66 138 54 121 l 530 753 l 541 770 q 547 789 547 781 q 481 821 547 814 l 81 821 q 46 829 58 821 q 34 848 34 837 q 46 867 34 859 q 81 876 58 876 l 505 876 q 597 818 585 862 q 601 795 601 806 q 594 762 601 781 q 575 722 588 742 l 111 108 q 98 84 98 94 q 161 55 98 60 z "},"[":{"ha":341,"x_min":34,"x_max":307,"o":"m 88 54 l 259 54 q 295 46 283 54 q 307 26 307 39 q 295 8 307 16 q 259 0 283 0 l 81 0 q 43 9 51 0 q 34 47 34 17 l 34 823 q 43 861 34 854 q 81 871 51 871 l 259 871 q 295 863 283 871 q 307 844 307 855 q 295 824 307 832 q 259 817 283 817 l 88 817 l 88 54 z "},"\\":{"ha":328,"x_min":34,"x_max":294,"o":"m 90 831 l 291 53 q 294 30 294 40 q 291 13 294 22 q 277 0 288 3 q 271 -1 275 -1 q 254 7 263 -1 q 238 39 245 16 l 38 817 q 34 841 34 831 q 37 858 34 848 q 52 870 41 867 q 58 871 55 871 q 75 863 65 871 q 90 831 84 854 z "},"]":{"ha":341,"x_min":34,"x_max":307,"o":"m 253 54 l 253 817 l 82 817 q 46 824 58 817 q 34 844 34 832 q 46 863 34 855 q 82 871 58 871 l 260 871 q 298 861 290 871 q 307 823 307 854 l 307 47 q 298 9 307 17 q 260 0 290 0 l 82 0 q 46 8 58 0 q 34 26 34 16 q 46 46 34 39 q 82 54 58 54 l 253 54 z "},"_":{"ha":503,"x_min":34,"x_max":469,"o":"m 422 54 q 457 46 446 54 q 469 27 469 38 q 457 7 469 15 q 422 -1 446 -1 l 82 -1 q 46 7 58 -1 q 34 27 34 15 q 46 46 34 38 q 82 54 58 54 l 422 54 z "},"`":{"ha":311,"x_min":34,"x_max":277,"o":"m 246 1040 q 273 1015 267 1027 q 277 1001 277 1007 q 275 992 277 996 q 254 981 269 982 l 252 981 q 219 992 238 981 l 64 1082 q 37 1107 43 1094 q 34 1119 34 1114 q 37 1130 34 1125 q 56 1140 42 1139 l 58 1140 q 92 1129 72 1140 l 246 1040 z "},"{":{"ha":342,"x_min":34,"x_max":308,"o":"m 130 54 l 260 54 q 296 46 283 54 q 308 26 308 39 q 296 8 308 16 q 260 0 283 0 l 123 0 q 85 9 92 0 q 75 47 75 17 l 75 313 q 34 449 34 378 q 34 489 34 452 q 70 587 35 527 l 75 823 q 85 861 75 854 q 123 871 92 871 l 260 871 q 296 863 283 871 q 308 844 308 855 q 296 824 308 832 q 260 817 283 817 l 130 817 l 130 583 q 92 457 92 509 q 94 422 92 452 q 130 318 96 393 l 130 54 z "},"|":{"ha":122,"x_min":34,"x_max":88,"o":"m 34 823 q 42 859 34 847 q 60 871 50 871 q 80 859 73 871 q 88 823 88 847 l 88 47 q 80 12 88 24 q 60 0 73 0 q 42 12 50 0 q 34 47 34 24 l 34 823 z "},"}":{"ha":342,"x_min":34,"x_max":308,"o":"m 212 54 l 212 318 q 247 422 245 393 q 249 457 249 452 q 212 583 249 509 l 212 817 l 82 817 q 46 824 58 817 q 34 844 34 832 q 46 863 34 855 q 82 871 58 871 l 219 871 q 257 861 250 871 q 267 823 267 854 l 272 587 q 308 489 307 527 q 308 449 308 452 q 267 313 308 378 l 267 47 q 257 9 267 17 q 219 0 250 0 l 82 0 q 46 8 58 0 q 34 26 34 16 q 46 46 34 39 q 82 54 58 54 l 212 54 z "},"~":{"ha":722,"x_min":37,"x_max":686,"o":"m 602 503 q 665 469 637 490 q 685 446 681 458 q 686 441 686 444 q 678 425 686 433 q 665 416 673 418 q 656 415 661 415 q 617 431 640 415 q 585 451 606 438 q 528 467 564 464 q 512 468 520 468 q 425 452 469 468 q 354 427 394 442 q 275 403 315 412 q 180 391 216 391 q 165 391 172 391 q 95 410 120 397 q 57 433 70 422 q 37 455 41 444 q 37 460 37 458 q 44 476 37 469 q 57 486 50 483 q 65 486 61 486 q 105 471 82 486 q 174 444 134 448 l 183 444 q 399 499 254 444 q 503 520 448 520 q 535 518 519 520 q 602 503 571 514 z "},"£":{"ha":593,"x_min":34,"x_max":559,"o":"m 149 427 q 188 359 166 393 q 245 189 245 266 q 227 109 245 146 q 193 52 210 75 q 218 55 203 55 l 511 55 q 547 47 535 55 q 559 28 559 39 q 547 8 559 16 q 511 1 535 1 l 82 1 q 46 8 58 1 q 35 28 35 16 q 46 47 35 39 q 82 55 58 55 q 189 205 180 61 q 172 271 189 233 q 131 352 155 310 q 92 427 109 391 l 82 427 q 46 435 58 427 q 34 455 34 443 q 46 474 34 466 q 68 481 54 479 q 36 630 36 565 q 189 857 36 783 q 282 877 235 877 q 458 811 369 877 q 496 762 496 783 q 491 749 496 755 q 471 740 482 740 q 427 763 452 740 q 281 820 362 820 q 138 762 189 818 q 86 634 87 706 q 125 481 93 560 l 422 481 q 457 474 446 481 q 469 455 469 466 q 457 435 469 443 q 422 427 446 427 l 149 427 z "},"±":{"ha":503,"x_min":34,"x_max":469,"o":"m 279 377 l 422 377 q 457 369 446 377 q 469 351 469 361 q 457 331 469 338 q 422 323 446 323 l 279 323 l 279 180 q 271 144 279 156 q 251 132 263 132 q 233 144 241 132 q 224 180 224 156 l 224 323 l 82 323 q 46 331 58 323 q 34 351 34 338 q 46 369 34 361 q 82 377 58 377 l 224 377 l 224 519 q 233 556 224 544 q 251 568 241 568 q 271 556 263 568 q 279 519 279 544 l 279 377 m 422 54 q 457 46 446 54 q 469 27 469 38 q 457 7 469 15 q 422 -1 446 -1 l 82 -1 q 46 7 58 -1 q 34 27 34 15 q 46 46 34 38 q 82 54 58 54 l 422 54 z "},"´":{"ha":311,"x_min":34,"x_max":277,"o":"m 65 1040 l 220 1129 q 254 1140 239 1140 q 262 1140 254 1140 q 275 1130 269 1139 q 277 1120 277 1125 q 273 1104 277 1114 q 248 1082 268 1094 l 92 992 q 60 981 73 981 q 51 982 58 981 q 37 992 43 982 q 34 1001 34 996 q 39 1017 34 1007 q 65 1040 44 1027 z "},"‘":{"ha":220,"x_min":34,"x_max":186,"o":"m 142 872 q 180 815 174 872 q 186 727 186 759 q 164 674 186 696 q 109 652 141 652 q 56 674 79 652 q 34 727 34 696 q 73 815 34 759 q 142 872 112 872 m 130 809 q 99 774 118 809 q 80 726 80 740 q 89 704 80 713 q 109 695 98 695 q 130 704 121 695 q 138 726 138 713 q 139 758 139 745 q 130 809 139 809 z "},"’":{"ha":220,"x_min":34,"x_max":186,"o":"m 77 652 q 40 708 45 652 q 34 796 34 764 q 56 849 34 827 q 111 872 79 872 q 164 849 141 872 q 186 796 186 827 q 147 708 186 764 q 77 652 108 652 m 90 714 q 121 749 102 714 q 140 798 140 783 q 131 819 140 810 q 111 828 123 828 q 90 819 99 828 q 81 798 81 810 q 81 769 81 782 q 90 714 81 714 z "},"“":{"ha":413,"x_min":34,"x_max":379,"o":"m 142 872 q 180 815 174 872 q 186 727 186 759 q 164 674 186 696 q 109 652 141 652 q 56 674 79 652 q 34 727 34 696 q 73 815 34 759 q 142 872 112 872 m 130 809 q 99 774 118 809 q 80 726 80 740 q 89 704 80 713 q 109 695 98 695 q 130 704 121 695 q 138 726 138 713 q 139 758 139 745 q 130 809 139 809 m 335 872 q 373 815 367 872 q 379 727 379 759 q 356 674 379 696 q 302 652 334 652 q 249 674 271 652 q 227 727 227 696 q 266 815 227 759 q 335 872 304 872 m 322 809 q 292 774 311 809 q 273 726 273 740 q 281 704 273 713 q 302 695 290 695 q 322 704 314 695 q 331 726 331 713 q 332 758 332 745 q 322 809 332 809 z "},"”":{"ha":220,"x_min":34,"x_max":186,"o":"m 77 -67 q 40 -11 45 -67 q 34 77 34 45 q 56 131 34 108 q 111 153 79 153 q 164 131 141 153 q 186 77 186 108 q 147 -11 186 45 q 77 -67 108 -67 m 90 -5 q 121 30 102 -5 q 140 79 140 64 q 131 100 140 92 q 111 109 123 109 q 90 100 99 109 q 81 79 81 92 q 81 50 81 63 q 90 -5 81 -5 z "},"€":{"ha":758,"x_min":34,"x_max":724,"o":"m 152 581 q 242 742 179 669 q 511 869 353 869 q 606 856 559 869 q 703 808 653 843 q 724 772 724 787 q 719 757 724 764 q 702 748 711 748 q 680 759 692 748 q 599 804 631 795 q 513 817 557 817 q 284 705 378 817 q 212 581 236 648 l 422 581 q 457 573 446 581 q 469 554 469 565 q 457 534 469 542 q 422 526 446 526 l 198 526 q 189 436 189 483 q 193 378 189 406 l 422 378 q 457 371 446 378 q 469 352 469 363 q 457 332 469 340 q 422 324 446 324 l 203 324 q 284 168 225 237 q 513 56 378 56 q 615 73 567 56 q 677 115 640 85 q 701 128 690 128 q 718 119 709 128 q 724 105 724 113 q 703 68 724 90 q 511 0 639 8 q 242 127 353 0 q 142 324 167 214 l 82 324 q 46 332 58 324 q 34 352 34 340 q 46 371 34 363 q 82 378 58 378 l 134 378 q 131 435 131 406 q 138 526 131 482 l 82 526 q 46 534 58 526 q 34 554 34 542 q 46 573 34 565 q 82 581 58 581 l 152 581 z "},"™":{"ha":942,"x_min":34,"x_max":908,"o":"m 171 817 l 81 817 q 46 825 58 817 q 34 844 34 833 q 46 863 34 855 q 81 871 58 871 l 178 871 q 216 862 208 871 q 226 823 226 854 l 226 610 q 218 574 226 587 q 199 562 210 562 q 179 574 187 562 q 171 610 171 587 l 171 817 m 323 817 q 287 825 299 817 q 275 843 275 833 q 287 863 275 855 q 323 871 299 871 l 406 871 q 441 863 429 871 q 454 843 454 855 q 441 825 454 833 q 406 817 429 817 l 323 817 m 544 788 q 542 779 544 788 q 541 746 541 770 l 541 610 q 532 575 541 587 q 513 563 524 563 q 494 575 502 563 q 486 610 486 587 l 486 746 q 487 760 486 753 q 546 871 487 868 l 552 871 q 616 814 576 871 l 678 722 q 696 705 687 705 l 702 705 q 718 724 707 705 l 777 814 q 842 871 817 871 l 848 871 q 908 760 907 868 l 908 610 q 900 575 908 587 q 882 563 892 563 q 861 575 869 563 q 853 610 853 587 l 853 746 q 848 795 853 770 q 842 806 847 806 q 716 635 833 806 q 695 621 707 621 l 690 621 q 673 636 684 621 q 553 806 562 806 q 544 788 548 806 z "},"^":{"ha":334,"x_min":34,"x_max":300,"o":"m 167 1142 l 92 1013 q 67 986 80 992 q 54 983 60 983 q 44 985 49 983 q 34 1005 35 991 l 34 1006 q 45 1040 34 1021 l 134 1195 q 167 1221 152 1221 q 199 1195 182 1221 l 289 1040 q 300 1006 300 1021 q 300 998 300 1006 q 290 985 299 991 q 279 983 285 983 q 263 987 273 983 q 241 1013 254 992 l 167 1142 z "},"§":{"ha":513,"x_min":34,"x_max":6991,"o":"m 92 393 l 92 47 q 84 12 92 24 q 64 0 77 0 q 46 12 54 0 q 38 47 38 24 l 38 400 q 47 439 38 431 q 86 448 56 448 l 431 448 q 468 440 456 448 q 479 421 479 432 q 468 401 479 410 q 431 393 456 393 l 92 393 m 89 818 l 89 568 q 81 532 89 544 q 60 519 73 519 q 42 532 50 519 q 34 568 34 544 l 34 824 q 43 863 34 855 q 82 872 52 872 l 428 872 q 464 864 452 872 q 475 846 475 857 q 464 826 475 833 q 428 818 452 818 l 89 818 m 562 823 q 570 859 562 847 q 589 871 578 871 q 609 859 601 871 q 616 823 616 847 l 616 300 q 687 128 622 189 q 872 56 763 56 q 1056 128 980 56 q 1133 300 1133 199 l 1133 823 q 1141 859 1133 847 q 1159 871 1149 871 q 1179 859 1171 871 q 1187 823 1187 847 l 1187 300 q 1096 88 1187 176 q 875 0 1004 0 q 652 88 745 0 q 562 326 562 174 l 562 823 m 1520 817 l 1289 817 q 1253 825 1265 817 q 1241 844 1241 833 q 1253 863 1241 855 q 1289 871 1265 871 l 1527 871 q 1565 862 1557 871 q 1575 823 1575 854 l 1575 48 q 1567 12 1575 24 q 1548 0 1558 0 q 1528 12 1536 0 q 1520 48 1520 24 l 1520 817 m 1672 817 q 1636 825 1648 817 q 1624 843 1624 833 q 1636 863 1624 855 q 1672 871 1648 871 l 1802 871 q 1838 863 1826 871 q 1850 843 1850 855 q 1838 825 1850 833 q 1802 817 1826 817 l 1672 817 m 1912 823 q 1920 859 1912 847 q 1938 871 1928 871 q 1958 859 1950 871 q 1966 823 1966 847 l 1966 300 q 2037 128 1971 189 q 2222 56 2112 56 q 2406 128 2330 56 q 2482 300 2482 199 l 2482 823 q 2490 859 2482 847 q 2509 871 2498 871 q 2529 859 2521 871 q 2537 823 2537 847 l 2537 300 q 2445 88 2537 176 q 2224 0 2353 0 q 2002 88 2094 0 q 1912 326 1912 174 l 1912 823 m 3031 439 q 3111 612 3111 500 q 3044 769 3111 724 q 2837 815 2976 815 q 2713 812 2738 815 l 2713 48 q 2705 12 2713 24 q 2686 0 2697 0 q 2666 12 2674 0 q 2658 48 2658 24 l 2658 770 q 2668 854 2658 837 q 2704 871 2677 871 q 2841 871 2732 871 q 3088 807 3012 871 q 3164 612 3164 742 q 3075 403 3164 480 q 2874 351 3006 351 q 2814 354 2846 351 q 2778 362 2790 354 q 2766 380 2766 370 q 2778 400 2766 393 q 2814 408 2790 408 q 2884 404 2851 404 q 3031 439 2974 404 m 2987 279 q 2974 313 2974 299 q 2975 321 2974 313 q 2983 334 2975 328 q 2995 337 2989 337 q 3011 333 3002 337 q 3032 308 3020 328 l 3212 60 q 3224 26 3224 39 q 3224 18 3224 25 q 3215 3 3223 10 q 3204 1 3210 1 q 3188 5 3198 1 q 3166 31 3179 10 l 2987 279 m 3305 861 q 3343 871 3313 871 l 3689 871 q 3725 863 3713 871 q 3737 843 3737 855 q 3725 824 3737 832 q 3689 817 3713 817 l 3350 817 l 3350 481 l 3689 481 q 3725 473 3713 481 q 3737 453 3737 465 q 3725 435 3737 443 q 3689 427 3713 427 l 3339 427 q 3307 435 3323 427 q 3296 477 3296 443 l 3296 823 q 3305 861 3296 854 m 3350 54 l 3689 54 q 3725 46 3713 54 q 3737 26 3737 39 q 3725 8 3737 16 q 3689 0 3713 0 l 3343 0 q 3305 9 3313 0 q 3296 47 3296 17 l 3296 304 q 3304 340 3296 328 q 3322 352 3311 352 q 3342 340 3335 352 q 3350 304 3350 328 l 3350 54 m 4347 54 l 4660 54 q 4696 46 4683 54 q 4708 26 4708 39 q 4696 8 4708 16 q 4660 0 4683 0 l 4340 0 q 4302 9 4310 0 q 4293 47 4293 17 l 4293 823 q 4301 859 4293 847 q 4319 871 4308 871 q 4339 859 4331 871 q 4347 823 4347 847 l 4347 54 m 4768 823 q 4776 859 4768 847 q 4794 871 4784 871 q 4814 859 4806 871 q 4822 823 4822 847 l 4822 47 q 4814 12 4822 24 q 4794 0 4806 0 q 4776 12 4784 0 q 4768 47 4768 24 l 4768 823 m 5578 822 q 5608 786 5608 803 q 5606 775 5608 781 q 5587 762 5599 762 q 5568 768 5579 762 q 5428 812 5511 796 q 5356 818 5392 818 q 5263 807 5309 818 q 5093 711 5171 783 q 4993 528 5031 657 q 4976 436 4981 489 q 4975 412 4975 424 q 4988 327 4975 370 q 5085 153 5014 235 q 5357 55 5187 55 q 5456 62 5404 55 q 5551 108 5513 76 l 5551 371 l 5389 371 q 5353 379 5366 371 q 5341 399 5341 387 q 5353 417 5341 410 q 5389 425 5366 425 l 5558 425 q 5596 415 5589 425 q 5606 378 5606 408 l 5606 111 q 5585 65 5606 83 q 5490 12 5537 25 q 5347 1 5413 1 q 5044 113 5141 1 q 4928 327 4956 213 q 4917 410 4917 369 q 4920 456 4917 423 q 4933 530 4923 489 q 5050 749 4976 680 q 5249 860 5146 836 q 5341 869 5290 869 q 5513 848 5417 869 q 5578 822 5543 839 m 5771 472 l 6286 472 q 6323 461 6316 472 q 6333 424 6333 454 l 6333 47 q 6326 12 6333 24 q 6307 0 6318 0 q 6287 12 6295 0 q 6279 47 6279 24 l 6279 417 l 5764 417 q 5726 426 5735 418 q 5717 467 5717 433 l 5717 819 q 5725 855 5717 843 q 5743 867 5733 867 q 5763 855 5756 867 q 5771 819 5771 843 l 5771 472 m 5717 304 q 5725 340 5717 328 q 5743 352 5733 352 q 5763 340 5756 352 q 5771 304 5771 328 l 5771 47 q 5763 12 5771 24 q 5743 0 5756 0 q 5725 12 5733 0 q 5717 47 5717 24 l 5717 304 m 6278 822 q 6286 858 6278 846 q 6304 869 6294 869 q 6324 858 6316 869 q 6332 822 6332 846 l 6332 565 q 6324 529 6332 541 q 6304 517 6316 517 q 6286 529 6294 517 q 6278 565 6278 541 l 6278 822 m 6660 817 l 6429 817 q 6393 825 6405 817 q 6382 844 6382 833 q 6393 863 6382 855 q 6429 871 6405 871 l 6667 871 q 6706 862 6698 871 q 6715 823 6715 854 l 6715 48 q 6707 12 6715 24 q 6689 0 6699 0 q 6668 12 6677 0 q 6660 48 6660 24 l 6660 817 m 6812 817 q 6776 825 6788 817 q 6764 843 6764 833 q 6776 863 6764 855 q 6812 871 6788 871 l 6942 871 q 6978 863 6966 871 q 6991 843 6991 855 q 6978 825 6991 833 q 6942 817 6966 817 l 6812 817 z "}}}
